<svg version="1.1" id="Layer_1" xmlns="http://www.w3.org/2000/svg" xmlns:xlink="http://www.w3.org/1999/xlink" x="0px" y="0px"
	 width="100%" viewBox="0 0 1024 1024" enable-background="new 0 0 1024 1024" xml:space="preserve">
<path fill="#000000" opacity="1.000000" stroke="none" 
	d="
M487.608978,776.318176 
	C495.602600,777.568481 503.155579,778.815918 510.737793,779.848328 
	C514.538025,780.365845 515.823547,782.248474 515.162903,785.949402 
	C510.284363,813.277649 506.195984,840.731995 502.144348,868.191589 
	C501.709137,871.141418 500.920929,873.174011 497.087616,872.508484 
	C482.504028,869.976440 467.770569,868.198425 453.297333,865.164551 
	C430.082123,860.298096 414.548401,841.571289 414.794861,819.909363 
	C415.103119,792.810303 434.342743,773.802917 461.392456,773.551514 
	C470.128113,773.470398 478.618652,775.019226 487.608978,776.318176 
M438.485962,813.096863 
	C435.850586,833.295166 443.760101,844.738892 462.944305,848.310059 
	C467.851868,849.223511 472.821686,849.798523 477.753510,850.587830 
	C480.506775,851.028442 482.192993,850.308716 482.657776,847.226379 
	C485.088867,831.104675 487.581818,814.991821 490.161896,798.893372 
	C490.551392,796.463074 489.717194,795.548401 487.446564,795.222290 
	C482.176880,794.465515 476.917419,793.629395 471.667389,792.744934 
	C455.488617,790.019409 444.008362,796.820374 438.485962,813.096863 
z"/>
<path fill="#000000" opacity="1.000000" stroke="none" 
	d="
M371.059265,261.964172 
	C364.764496,257.033081 358.742188,252.329056 351.411224,246.602859 
	C353.045654,255.198685 354.395294,262.369019 355.775452,269.533447 
	C356.939545,275.576050 358.069885,281.626556 359.354492,287.643829 
	C359.925232,290.316986 359.219360,292.096863 356.760620,293.387970 
	C354.555511,294.545898 352.503662,295.995331 350.381836,297.312378 
	C341.117737,303.062744 343.693298,302.878845 335.626434,296.570892 
	C320.148560,284.467834 304.785889,272.217224 289.396271,260.001648 
	C287.351898,258.378906 285.429077,256.603058 282.789246,254.328934 
	C288.360931,250.924423 293.256226,247.865158 298.224121,244.928726 
	C300.424133,243.628326 301.953796,245.233322 303.517212,246.501724 
	C313.473755,254.579453 323.437317,262.648590 333.411407,270.704620 
	C334.804260,271.829620 336.267609,272.867340 338.662994,274.672394 
	C335.690735,260.443420 332.855591,247.346298 330.288513,234.196838 
	C329.748352,231.429840 327.239624,228.017700 329.881989,225.757095 
	C333.885742,222.331802 338.401001,219.316544 343.433319,217.474655 
	C345.094177,216.866776 346.408234,218.681503 347.679901,219.699982 
	C358.971649,228.743683 370.240387,237.816132 382.582550,247.737518 
	C380.353088,237.109085 378.371246,227.672318 376.394714,218.234406 
	C375.302948,213.021225 374.215332,207.807144 373.136169,202.591339 
	C372.793121,200.933273 372.412659,199.159485 374.133820,198.052261 
	C378.574554,195.195618 383.083130,192.444458 388.124908,189.301941 
	C390.919006,195.258499 391.369843,201.055450 392.545105,206.618317 
	C396.289917,224.344101 399.805389,242.118851 403.648865,259.822693 
	C404.302856,262.835144 403.559967,264.392181 401.149689,265.994232 
	C387.776459,274.883087 387.802917,274.927521 375.244110,265.297302 
	C373.922943,264.284210 372.635071,263.227661 371.059265,261.964172 
z"/>
<path fill="#000000" opacity="1.000000" stroke="none" 
	d="
M817.757690,668.244751 
	C818.416931,666.648621 818.059570,665.688477 816.859558,664.991455 
	C812.284546,662.334229 807.940796,659.232910 802.370361,657.323059 
	C798.514160,664.208191 794.712585,670.996887 790.909973,677.785034 
	C788.549866,681.998047 786.107056,686.167419 783.856750,690.438232 
	C782.431824,693.142639 780.910583,694.031738 777.959351,692.288757 
	C764.149292,684.132324 765.103394,688.265320 772.634338,674.217285 
	C777.184265,665.730164 781.875671,657.318848 786.776733,648.374939 
	C781.401672,645.283386 776.454529,642.300049 771.371643,639.569275 
	C768.587646,638.073669 768.004211,640.841370 767.121643,642.410034 
	C760.508301,654.163818 753.805542,665.873657 747.523743,677.804077 
	C745.491516,681.663635 743.682007,681.831543 740.177429,679.891174 
	C729.073120,673.742798 728.931030,673.806458 734.948181,662.808838 
	C743.819519,646.594849 752.884460,630.486694 761.713257,614.249939 
	C763.442200,611.070374 765.002197,610.400330 768.319214,612.261108 
	C792.717041,625.947205 817.191162,639.497803 841.695435,652.992920 
	C844.792053,654.698303 845.557129,656.191467 843.645752,659.579224 
	C833.664246,677.270203 823.864929,695.065918 814.207153,712.935852 
	C812.201599,716.646729 810.397217,716.978821 806.837952,714.899231 
	C795.688660,708.384827 795.591431,708.507202 801.687073,697.409119 
	C806.977661,687.776978 812.319092,678.172668 817.757690,668.244751 
z"/>
<path fill="#000000" opacity="1.000000" stroke="none" 
	d="
M634.254456,819.683105 
	C625.481628,802.821350 616.883301,786.287109 608.301025,769.744446 
	C605.222412,763.810181 605.241760,763.803894 611.386169,760.670776 
	C613.758118,759.461304 616.265503,758.448303 618.455750,756.967957 
	C621.869202,754.660767 624.548462,754.479248 626.536194,759.787292 
	C632.806519,747.374634 642.689087,741.093872 655.317383,739.132568 
	C663.170227,737.912903 670.501343,739.862915 677.293335,743.984924 
	C691.759155,752.764099 699.558594,773.043579 694.447754,788.735718 
	C689.380920,804.292725 673.674133,814.222351 656.023499,812.847229 
	C655.460388,814.846375 656.890442,816.259216 657.652954,817.750061 
	C661.137939,824.564087 664.649719,831.368591 668.358398,838.062073 
	C669.837280,840.731262 669.415466,842.247314 666.691345,843.557617 
	C662.795410,845.431519 658.919556,847.385742 655.213684,849.604065 
	C651.998230,851.528687 650.268555,850.796082 648.634399,847.504944 
	C644.047119,838.266663 639.187500,829.163635 634.254456,819.683105 
M646.291870,761.639221 
	C636.398987,768.443481 635.310181,780.746155 643.769592,790.662354 
	C648.145447,795.791748 653.829163,797.792297 660.332336,796.465393 
	C666.747070,795.156494 671.557800,791.470093 673.643555,784.988708 
	C676.375366,776.499939 673.047119,769.428772 667.295837,763.724915 
	C661.480652,757.957825 654.267639,757.748413 646.291870,761.639221 
z"/>
<path fill="#000000" opacity="1.000000" stroke="none" 
	d="
M520.299622,160.169891 
	C520.041260,165.589951 519.785461,170.535538 519.483337,176.378662 
	C530.986084,169.148712 542.505554,169.119049 554.114075,174.187134 
	C561.049683,177.215118 566.209595,182.303894 569.809814,188.977219 
	C577.821350,203.827209 574.764832,224.793213 562.988098,235.617111 
	C549.833069,247.707657 533.133911,248.015793 514.865845,236.319550 
	C514.496338,238.158844 514.149780,239.884384 513.769836,241.775757 
	C507.674561,243.094040 501.778442,241.555481 495.875427,241.062088 
	C493.697632,240.880066 493.750519,238.755783 493.857941,237.093399 
	C495.025848,219.018753 496.255005,200.948044 497.423798,182.873444 
	C498.185364,171.096344 499.073639,159.321640 499.490601,147.531189 
	C499.638977,143.335419 501.419647,142.360764 505.021149,142.692093 
	C508.496613,143.011826 511.991638,143.491898 515.463318,143.391403 
	C520.568665,143.243591 521.751038,145.828217 521.163208,150.262527 
	C520.748535,153.389908 520.580383,156.549973 520.299622,160.169891 
M550.869568,198.825699 
	C545.343445,188.713547 534.141602,185.374527 525.096558,191.326660 
	C518.492432,195.672592 517.091675,202.406067 517.332886,209.726486 
	C517.636169,218.932785 524.197205,225.955994 533.148987,226.699249 
	C542.203552,227.451019 549.579163,221.755600 551.774292,212.801468 
	C552.896606,208.223419 552.453247,203.915695 550.869568,198.825699 
z"/>
<path fill="#000000" opacity="1.000000" stroke="none" 
	d="
M741.823364,254.197372 
	C736.573975,249.854263 731.598206,245.737228 726.198792,241.269684 
	C721.198730,247.172653 716.505371,252.713593 711.344543,258.806335 
	C718.788757,265.084778 725.982300,271.168549 733.196533,277.227661 
	C735.873718,279.476135 738.574585,281.698029 741.311035,283.873657 
	C743.468018,285.588593 743.577393,287.220123 741.660339,289.287903 
	C739.400696,291.725281 737.176147,294.246552 735.315002,296.988464 
	C733.213257,300.084747 731.346069,299.683258 728.833435,297.543457 
	C720.339478,290.310211 711.642578,283.312439 703.240601,275.975647 
	C700.393860,273.489777 698.695312,273.652161 696.412964,276.558472 
	C691.376953,282.971436 685.955994,289.082794 680.942444,295.512482 
	C678.738098,298.339355 677.011719,298.388336 674.480469,296.061768 
	C671.050781,292.909454 667.429443,289.958588 663.802246,287.030457 
	C661.481384,285.156891 661.427490,283.465637 663.345337,281.172882 
	C681.504761,259.463409 699.626465,237.722107 717.667480,215.914276 
	C719.946045,213.160019 721.657715,213.354721 724.231079,215.523987 
	C739.890625,228.724991 755.620300,241.843994 771.428772,254.866241 
	C774.234253,257.177307 774.533081,258.894409 772.104553,261.772308 
	C763.433411,272.048035 763.515381,272.131592 753.230225,263.691864 
	C749.497498,260.628815 745.806885,257.514404 741.823364,254.197372 
z"/>
<path fill="#000000" opacity="1.000000" stroke="none" 
	d="
M192.975861,467.809814 
	C207.251419,460.664307 220.940170,461.330322 233.365448,470.609436 
	C246.396133,480.340637 250.083725,494.359222 247.739410,509.837036 
	C244.184738,533.306152 224.050827,546.720886 201.455460,541.240479 
	C183.904617,536.983582 171.759949,518.097107 174.044128,498.881683 
	C175.607010,485.734131 181.102158,475.064331 192.975861,467.809814 
M196.898682,490.394958 
	C190.717636,498.373718 190.689011,508.684631 196.830261,515.025269 
	C202.513855,520.893372 216.024567,522.023132 222.953812,517.165100 
	C228.966385,512.949707 230.512451,506.906067 229.790085,499.999756 
	C229.162781,494.002075 226.003738,489.595917 220.544861,487.340912 
	C212.498657,484.016998 204.609940,484.292053 196.898682,490.394958 
z"/>
<path fill="#000000" opacity="1.000000" stroke="none" 
	d="
M445.328888,232.713226 
	C454.707428,234.142548 462.621857,231.883606 468.904968,225.242676 
	C471.269287,222.743668 473.171326,222.547562 475.664337,224.615814 
	C476.558472,225.357590 477.559845,225.972885 478.528717,226.621384 
	C486.737213,232.115570 486.775330,232.577332 479.566315,239.643631 
	C466.678589,252.276230 441.025116,255.100601 426.519470,245.484009 
	C413.746887,237.016312 407.638702,221.728882 410.818451,206.187408 
	C413.694122,192.132080 426.107056,180.700699 441.704437,177.743576 
	C462.057404,173.884872 479.678741,184.957321 484.769287,204.803619 
	C486.571655,211.830383 486.215454,212.392868 479.297791,213.944519 
	C465.657623,217.004028 452.024292,220.094009 438.386810,223.165588 
	C437.118683,223.451218 435.672546,223.330856 434.776154,225.078598 
	C436.593811,229.522980 440.538269,231.377975 445.328888,232.713226 
M431.112335,207.208939 
	C430.416779,210.274445 431.702972,211.168671 434.594513,210.485657 
	C438.961517,209.454086 443.345245,208.492889 447.723480,207.509171 
	C452.670013,206.397766 457.618347,205.294434 462.606445,204.178528 
	C460.459076,197.398697 455.117493,193.969620 447.791077,194.120789 
	C439.269104,194.296646 433.518402,198.582092 431.112335,207.208939 
z"/>
<path fill="#000000" opacity="1.000000" stroke="none" 
	d="
M378.080475,818.224854 
	C364.154266,817.288086 353.386536,811.335083 345.475830,800.478699 
	C337.556854,789.610901 337.712097,772.534241 345.270203,761.300171 
	C347.262848,758.338318 349.104553,759.040771 351.550293,760.291809 
	C364.009552,766.665222 376.498932,772.980225 389.010193,779.250977 
	C390.585571,780.040649 392.049347,781.349548 394.441925,780.986694 
	C396.000977,775.521423 394.210541,770.906799 390.489197,767.001465 
	C384.876556,761.111328 377.851959,758.247864 369.744843,759.237549 
	C365.409180,759.766907 363.133240,758.614197 362.583984,754.238464 
	C362.440765,753.097473 361.955353,751.999573 361.627869,750.881653 
	C359.257874,742.790894 359.441376,742.505798 367.872498,741.176575 
	C383.729767,738.676697 406.144714,751.579224 412.811890,767.044861 
	C419.502899,782.565796 414.581329,800.376282 400.502014,811.229675 
	C394.056793,816.198120 386.623901,818.284363 378.080475,818.224854 
M368.088287,798.541260 
	C376.998169,802.489807 384.390289,800.966003 388.313416,793.965759 
	C379.024597,788.996399 369.849915,783.850220 360.105865,779.793823 
	C356.864136,786.811279 359.665283,793.552124 368.088287,798.541260 
z"/>
<path fill="#000000" opacity="1.000000" stroke="none" 
	d="
M801.255920,349.383087 
	C820.806213,356.946747 832.603699,378.215149 828.339966,397.658875 
	C822.690308,423.423157 792.276855,434.981110 770.963379,419.463501 
	C750.768188,404.760101 747.415039,373.629242 764.734314,357.797852 
	C774.973389,348.438293 787.223389,345.317749 801.255920,349.383087 
M805.155762,398.643097 
	C808.841492,394.521759 811.411316,389.999420 810.194275,384.182739 
	C807.157227,369.667084 792.808655,364.572021 779.894287,373.410889 
	C773.853821,377.545105 771.006775,384.918518 772.817566,391.738525 
	C774.891846,399.551178 781.193848,405.337830 788.714233,405.408813 
	C794.684326,405.465149 800.075928,403.142578 805.155762,398.643097 
z"/>
<path fill="#000000" opacity="1.000000" stroke="none" 
	d="
M262.110718,708.913574 
	C264.817383,710.549744 267.232605,711.977539 269.831757,713.514099 
	C268.589508,718.227661 266.059143,722.155090 263.789398,726.151062 
	C262.091766,729.139893 259.605652,727.306519 257.686432,726.284851 
	C247.716812,720.977539 240.126633,713.127136 234.530457,703.430908 
	C224.622284,686.263367 227.369095,673.123291 243.364395,661.355042 
	C253.284836,654.056335 263.486481,647.140930 273.485657,639.947510 
	C276.021790,638.122986 277.869690,638.060181 279.647217,640.855408 
	C281.432220,643.662292 283.232208,646.498474 285.366394,649.035095 
	C288.226196,652.434143 289.120667,655.313965 283.239563,657.975952 
	C295.820557,661.192627 302.671997,669.324341 306.584290,680.099060 
	C312.234833,695.661194 301.570038,710.625732 285.900787,709.278259 
	C278.835876,708.670654 273.444641,704.670776 269.080414,699.456604 
	C265.135651,694.743530 261.672974,689.625916 258.020935,684.669617 
	C256.952087,683.219055 256.119659,681.559631 254.469177,680.714111 
	C249.557739,684.114441 248.079544,688.600952 250.059280,694.173035 
	C252.265442,700.382446 256.681671,704.845947 262.110718,708.913574 
M274.039124,684.473267 
	C275.433289,686.128967 276.782166,687.833801 278.742065,688.885620 
	C283.331329,691.348633 288.889099,688.853210 289.349121,683.717285 
	C289.817596,678.486694 286.934204,674.409668 282.976624,671.398315 
	C279.137482,668.476929 274.748566,666.955444 269.911133,669.266296 
	C266.597534,670.849243 265.357452,672.909607 268.049408,676.222961 
	C270.039703,678.672791 271.753937,681.346985 274.039124,684.473267 
z"/>
<path fill="#000000" opacity="1.000000" stroke="none" 
	d="
M227.295578,327.374451 
	C246.430618,300.649719 279.819733,307.846527 291.442963,330.349426 
	C300.370819,347.633881 293.042236,371.460693 275.399597,382.783264 
	C259.393250,393.055725 238.797089,389.714233 226.921524,374.918304 
	C216.017136,361.332336 216.073425,344.555359 227.295578,327.374451 
M268.833313,364.443207 
	C269.678925,363.640808 270.581635,362.890015 271.361176,362.027863 
	C278.161560,354.507019 277.736023,344.162903 270.376221,337.512146 
	C261.166748,329.189941 249.835373,328.925507 242.845978,336.869720 
	C236.908279,343.618561 236.587540,352.621765 242.049194,359.234558 
	C249.330414,368.050415 259.150665,370.166931 268.833313,364.443207 
z"/>
<path fill="#000000" opacity="1.000000" stroke="none" 
	d="
M812.197266,486.016876 
	C815.435242,485.567291 818.259583,485.308716 821.029602,484.770538 
	C829.906433,483.046143 833.461487,478.464020 832.785400,469.812500 
	C832.125488,461.367462 826.589966,455.571045 818.452637,455.386444 
	C808.099243,455.151550 797.998047,457.640930 787.763550,458.735809 
	C776.116516,459.981781 777.100403,462.513763 775.606262,449.563293 
	C774.411316,439.205139 774.355225,438.993286 784.935120,437.445374 
	C803.347839,434.751587 821.816040,432.437897 840.232178,429.765961 
	C844.594666,429.133057 846.418640,430.420654 846.408569,434.875610 
	C846.402222,437.673737 846.752686,440.549896 847.460876,443.255493 
	C848.711121,448.032043 848.211609,451.316986 841.121216,450.534576 
	C847.995972,457.532166 851.495422,464.777863 852.534912,473.379028 
	C854.409424,488.890320 846.225891,501.645874 830.935608,505.012787 
	C821.540771,507.081573 811.874390,507.920319 802.327332,509.293182 
	C797.884460,509.932098 793.421753,510.445068 788.993408,511.170197 
	C785.610901,511.724060 783.542969,510.777618 783.149292,507.093323 
	C782.672913,502.633972 782.164307,498.173828 781.490051,493.741364 
	C781.037170,490.763855 782.530640,490.011383 785.087097,489.688354 
	C793.987549,488.563660 802.869629,487.294281 812.197266,486.016876 
z"/>
<path fill="#000000" opacity="1.000000" stroke="none" 
	d="
M738.918091,764.180237 
	C726.598694,770.083740 715.685791,767.864990 706.353394,759.040405 
	C696.313293,749.546509 686.878479,739.414001 677.115601,729.623962 
	C675.160400,727.663208 675.092163,726.095947 677.137817,724.185730 
	C680.302368,721.230713 683.479492,718.262634 686.365173,715.043579 
	C688.871399,712.247986 690.786865,712.382935 693.304932,715.048096 
	C699.939758,722.070374 706.750488,728.926758 713.513306,735.827515 
	C715.144592,737.492004 716.771729,739.179810 718.555237,740.672363 
	C724.718689,745.830261 730.705200,746.243286 736.254578,742.011414 
	C742.606812,737.167419 744.647705,729.321716 741.296204,722.430603 
	C739.970581,719.704956 738.008240,717.445190 735.891602,715.291687 
	C729.002502,708.282471 722.251099,701.134399 715.241272,694.248840 
	C712.545837,691.601135 711.948730,689.671570 715.135681,686.985107 
	C718.310364,684.308838 721.190674,681.264404 724.049866,678.239441 
	C726.071594,676.100403 727.706848,675.948303 729.854858,678.151794 
	C744.855591,693.540039 759.915222,708.870911 775.002869,724.173950 
	C776.944336,726.143127 777.020630,727.739746 774.916443,729.592834 
	C772.417786,731.793396 769.822205,733.947021 767.672729,736.465820 
	C764.649658,740.008240 761.826599,742.118347 757.879578,736.410095 
	C756.009583,749.168823 749.387695,757.835388 738.918091,764.180237 
z"/>
<path fill="#000000" opacity="1.000000" stroke="none" 
	d="
M282.142639,757.816895 
	C279.055878,754.050049 276.575226,750.320740 274.575562,746.258545 
	C273.368652,743.806763 273.838989,742.121704 276.396179,741.076294 
	C276.704010,740.950378 276.999603,740.793457 277.296997,740.643250 
	C287.239685,735.619934 287.193146,735.651123 293.321899,744.722473 
	C296.712036,749.740295 300.716034,754.229065 306.269714,756.927002 
	C309.033356,758.269714 312.191132,759.076965 314.525940,756.257568 
	C316.791016,753.522339 314.467377,751.157104 312.982574,749.118652 
	C308.280762,742.663574 302.557617,736.971863 298.651733,729.914185 
	C295.000122,723.315918 294.278076,716.736938 298.517883,710.066895 
	C303.408295,702.373413 312.027191,698.987610 321.607697,701.386475 
	C334.948456,704.727051 344.256134,713.629150 352.239319,724.199951 
	C354.749725,727.524109 356.874237,731.101196 358.519318,734.969971 
	C359.672455,737.681946 359.080231,739.406433 356.352234,740.522278 
	C352.811279,741.970703 349.285736,744.759338 345.794006,744.697144 
	C341.386871,744.618774 341.719910,738.978638 339.660492,735.985046 
	C335.643097,730.145447 331.277405,724.771057 325.208405,720.996033 
	C322.577026,719.359314 319.514191,717.966248 316.981323,720.631226 
	C314.221039,723.535583 316.623566,726.265320 318.425720,728.598083 
	C322.802673,734.263550 327.769623,739.471985 331.611053,745.553711 
	C336.764282,753.712402 336.990234,761.232727 331.979401,767.906616 
	C326.381958,775.361816 319.000214,778.670166 309.659149,776.509155 
	C298.226166,773.864197 289.912659,766.534302 282.142639,757.816895 
z"/>
<path fill="#000000" opacity="1.000000" stroke="none" 
	d="
M783.861938,531.943359 
	C790.346008,524.671875 798.361938,523.019714 807.248901,524.062500 
	C814.343506,524.895081 821.449402,525.653992 828.521301,526.650940 
	C832.955872,527.276001 835.774902,526.144409 835.625427,521.158813 
	C835.505981,517.175049 837.625122,516.291260 841.031067,516.893066 
	C842.341187,517.124573 843.653015,517.366516 844.974060,517.513550 
	C852.105530,518.307312 852.184021,518.297241 852.216980,525.356323 
	C852.229309,528.006958 853.187561,529.465576 855.889893,529.608826 
	C856.388306,529.635254 856.891968,529.621948 857.384644,529.689453 
	C871.692566,531.651611 869.053833,529.038269 867.713623,542.755493 
	C866.811523,551.989014 866.346375,551.874390 856.953369,551.390625 
	C854.681946,551.273621 852.375671,550.460449 849.615845,551.442261 
	C849.155518,555.373352 848.585083,559.445984 848.229309,563.537231 
	C847.942688,566.832458 846.744385,568.018555 843.107422,567.614441 
	C830.872620,566.255066 830.643982,566.396606 832.047546,554.091675 
	C832.540771,549.767517 831.741516,548.254150 827.148926,548.073242 
	C820.194458,547.799316 813.259888,546.767761 806.342834,545.860413 
	C798.034363,544.770508 794.105530,548.054443 795.303345,556.437866 
	C796.000000,561.313538 794.428406,562.633362 790.055054,563.585266 
	C779.338379,565.917969 777.922180,564.961670 777.631348,553.907227 
	C777.424438,546.041504 778.840027,538.683411 783.861938,531.943359 
z"/>
<path fill="#000000" opacity="1.000000" stroke="none" 
	d="
M232.678635,394.237457 
	C243.164963,398.179230 253.270508,402.032196 263.426239,405.748016 
	C266.301178,406.799927 267.495483,408.120026 266.085663,411.290649 
	C264.331146,415.236572 262.797241,419.306183 261.522125,423.431763 
	C260.445648,426.914764 258.658203,427.180908 255.537888,426.013306 
	C227.644577,415.575775 199.731003,405.191010 171.759232,394.966217 
	C167.965622,393.579498 167.270767,391.808411 168.836761,388.288605 
	C170.389008,384.799774 171.731186,381.181366 172.762787,377.506775 
	C173.864624,373.582001 175.877075,373.164764 179.424438,374.501678 
	C197.018066,381.132080 214.679413,387.582703 232.678635,394.237457 
z"/>
<path fill="#000000" opacity="1.000000" stroke="none" 
	d="
M159.217560,439.209290 
	C155.870193,438.612183 155.113739,436.888092 155.829773,434.080994 
	C156.938736,429.733551 157.946518,425.356750 158.854446,420.962860 
	C159.465103,418.007629 161.055298,417.264099 163.886993,417.930084 
	C193.180405,424.819305 222.471329,431.721313 251.810837,438.409668 
	C255.402710,439.228485 256.078369,440.814209 255.292816,443.942291 
	C254.442795,447.327057 253.741547,450.748840 252.931931,454.144135 
	C251.397659,460.578369 251.391006,460.548279 245.101868,459.089020 
	C216.605743,452.477112 188.105789,445.881714 159.217560,439.209290 
z"/>
<path fill="#000000" opacity="1.000000" stroke="none" 
	d="
M782.059021,302.075134 
	C784.438843,305.905731 784.438843,305.905731 779.872803,311.155518 
	C787.041992,312.643494 792.937927,316.057526 797.813538,321.280121 
	C800.097107,323.726135 800.506653,325.747101 797.322144,327.677490 
	C796.473877,328.191681 795.756836,328.917938 794.954773,329.513580 
	C792.016724,331.695526 789.329895,334.994049 786.057556,335.751801 
	C781.927368,336.708160 781.124512,331.282471 778.382996,329.113373 
	C771.957825,324.029602 764.797913,323.469940 757.198914,328.790405 
	C749.016357,334.519379 740.965271,340.480255 733.261108,346.830444 
	C729.144897,350.223236 726.896545,349.499146 724.270874,345.370331 
	C721.698425,341.325317 718.607971,337.609741 715.720825,333.717133 
	C718.075500,330.342621 721.335876,328.529694 724.192200,326.339600 
	C738.998596,314.986633 753.950378,303.823181 768.751648,292.463623 
	C771.607971,290.271515 773.518005,290.053101 775.586121,293.361450 
	C777.433411,296.316589 779.739502,298.984924 782.059021,302.075134 
z"/>
<path fill="#000000" opacity="1.000000" stroke="none" 
	d="
M233.206879,623.237061 
	C243.110123,619.165527 252.692551,615.356750 262.151764,611.263123 
	C265.322296,609.891052 267.049408,610.359680 268.235840,613.658447 
	C269.754425,617.880859 271.428741,622.057312 273.256958,626.154968 
	C274.532196,629.013184 273.565674,630.268738 270.856171,631.363281 
	C251.275970,639.273010 231.722672,647.250977 212.221024,655.352234 
	C208.877808,656.741089 207.307953,655.693420 206.215729,652.614197 
	C205.216263,649.796509 204.087082,647.017334 202.869476,644.286072 
	C201.130554,640.385437 199.035385,636.475708 207.040955,635.535095 
	C203.585587,632.934937 201.028732,631.239136 198.743347,629.233948 
	C195.838486,626.685181 193.907318,623.341370 191.971771,620.029419 
	C190.272034,617.121033 190.608719,615.032471 194.108948,613.961365 
	C195.217102,613.622253 196.255737,613.062378 197.344116,612.650879 
	C200.603058,611.418579 203.927383,609.113647 207.120468,609.278198 
	C210.847733,609.470337 210.464081,614.400757 212.241531,617.047119 
	C216.846909,623.904175 223.352905,626.057129 233.206879,623.237061 
z"/>
<path fill="#000000" opacity="1.000000" stroke="none" 
	d="
M195.219421,552.035889 
	C199.380997,571.152222 209.672760,572.751953 223.913864,568.884338 
	C231.765747,566.751892 239.848495,565.483032 247.780762,563.626465 
	C251.084900,562.853149 252.756927,563.642822 253.308380,567.154968 
	C253.977539,571.416748 254.923721,575.645020 255.961227,579.835571 
	C256.682068,582.747131 255.736786,584.185913 252.839600,584.792114 
	C231.994980,589.153992 211.162231,593.572449 190.327072,597.979370 
	C187.780334,598.518005 186.163788,597.829834 185.671249,595.000916 
	C185.101303,591.727356 184.497986,588.433289 183.538300,585.260254 
	C182.151596,580.675354 182.164505,577.126343 189.640671,577.173889 
	C183.676453,571.922852 179.702408,566.859680 177.444962,560.490906 
	C175.948822,556.270020 176.783051,554.148376 181.317276,553.769592 
	C185.912094,553.385742 190.185287,550.841431 195.219421,552.035889 
z"/>
<path fill="#000000" opacity="1.000000" stroke="none" 
	d="
M818.508057,578.474121 
	C820.816406,579.879028 819.965027,581.537048 819.524048,583.094971 
	C816.857666,592.512878 814.054565,601.894226 811.549255,611.354492 
	C810.570801,615.049744 808.667297,615.645203 805.326355,614.621765 
	C790.567566,610.100464 793.165771,612.668335 796.640259,599.428650 
	C798.491821,592.373230 800.774536,585.431946 802.711121,578.397400 
	C803.542419,575.377747 805.003784,574.272888 808.122070,575.347839 
	C811.411987,576.481995 814.803528,577.321228 818.508057,578.474121 
z"/>
<path fill="#000000" opacity="1.000000" stroke="none" 
	d="
M622.212891,238.194656 
	C629.252014,241.222031 632.776978,246.268570 632.068970,251.893539 
	C631.305603,257.958923 626.304443,263.354858 620.665283,264.197510 
	C614.698914,265.089050 608.855530,261.924072 606.488647,256.373383 
	C604.431152,251.548264 605.077454,246.859070 608.093994,242.700043 
	C611.490845,238.016693 616.337646,236.915131 622.212891,238.194656 
z"/>
<path fill="#000000" opacity="1.000000" stroke="none" 
	d="
M544.808472,785.955200 
	C545.259033,775.030579 557.405945,768.967163 566.120483,775.315430 
	C570.733093,778.675415 572.714722,785.085144 570.918396,790.492676 
	C569.287048,795.403564 563.819763,799.119812 558.111755,799.197693 
	C552.330444,799.276550 547.631592,795.903809 545.732117,790.230774 
	C545.313660,788.980957 545.116455,787.657104 544.808472,785.955200 
z"/>
</svg>